<mxfile host="app.diagrams.net" modified="2023-07-01T02:21:18.372Z" agent="Mozilla/5.0 (Macintosh; Intel Mac OS X 10_15_7) AppleWebKit/605.1.15 (KHTML, like Gecko) Version/16.1 Safari/605.1.15" version="21.5.2" etag="1jpCFCDt-rZf9hs_jg1I" type="github">
  <diagram name="第 1 页" id="729rNtoi043l7EHLy3l-">
    <mxGraphModel>
      <root>
        <mxCell id="0" />
        <mxCell id="1" parent="0" />
      </root>
    </mxGraphModel>
  </diagram>
</mxfile>
